<svg width="45" height="45" viewBox="0 0 45 45" fill="none" xmlns="http://www.w3.org/2000/svg">
<g clip-path="url(#clip0_2_20)">
<path fill-rule="evenodd" clip-rule="evenodd" d="M22.5 0.554993C10.0744 0.554993 0 10.6275 0 23.055C0 32.9962 6.44625 41.43 15.3863 44.4056C16.5113 44.6137 16.9238 43.9181 16.9238 43.3237C16.9238 42.7875 16.9031 41.0156 16.8938 39.135C10.635 40.4962 9.31313 36.48 9.31313 36.48C8.28938 33.8794 6.81563 33.1875 6.81563 33.1875C4.77375 31.7906 6.96938 31.8206 6.96938 31.8206C9.22875 31.98 10.4175 34.14 10.4175 34.14C12.4238 37.5787 15.6806 36.585 16.965 36.0094C17.1675 34.5544 17.7506 33.5625 18.3938 33C13.3969 32.4319 8.14313 30.5025 8.14313 21.8812C8.14313 19.425 9.0225 17.4169 10.4625 15.8419C10.2281 15.2737 9.4575 12.9862 10.68 9.88687C10.68 9.88687 12.57 9.28312 16.8694 12.1931C18.6638 11.6944 20.5875 11.445 22.5 11.4356C24.4125 11.445 26.3381 11.6944 28.1363 12.1931C32.43 9.28124 34.3181 9.88687 34.3181 9.88687C35.5425 12.9862 34.7719 15.2737 34.5394 15.8419C35.9813 17.4169 36.855 19.425 36.855 21.8812C36.855 30.5231 31.5919 32.4262 26.5819 32.9831C27.3881 33.6806 28.1081 35.0512 28.1081 37.1494C28.1081 40.1606 28.0819 42.5831 28.0819 43.3237C28.0819 43.9219 28.4869 44.625 29.6269 44.4037C38.5631 41.4244 45.0019 32.9944 45.0019 23.0569C45 10.6294 34.9256 0.554993 22.5 0.554993Z" fill="#676F9D"/>
<path d="M8.52188 32.8612C8.47313 32.9737 8.29688 33.0075 8.13563 32.9306C7.9725 32.8575 7.88063 32.7037 7.93313 32.5931C7.98188 32.4787 8.15813 32.4469 8.32125 32.5237C8.48438 32.595 8.57813 32.7487 8.52188 32.8612Z" fill="#676F9D"/>
<path d="M9.43312 33.8775C9.32625 33.9769 9.11625 33.93 8.97375 33.7744C8.82562 33.6169 8.79937 33.4069 8.90812 33.3075C9.01875 33.2081 9.22125 33.255 9.36938 33.4125C9.5175 33.5681 9.54562 33.7763 9.43312 33.8775Z" fill="#676F9D"/>
<path d="M10.32 35.1731C10.1813 35.2687 9.95625 35.1787 9.8175 34.98C9.67875 34.7794 9.67875 34.5394 9.82125 34.4437C9.96 34.3481 10.1831 34.4344 10.3238 34.6331C10.4606 34.8356 10.4606 35.0756 10.32 35.1731Z" fill="#676F9D"/>
<path d="M11.535 36.4256C11.4112 36.5625 11.1487 36.525 10.9575 36.3394C10.7606 36.1575 10.7062 35.9006 10.83 35.7638C10.9556 35.6269 11.22 35.6663 11.4131 35.85C11.6081 36.0319 11.6662 36.2906 11.535 36.4256Z" fill="#676F9D"/>
<path d="M13.2131 37.1513C13.1588 37.3275 12.9056 37.4081 12.6506 37.3331C12.3956 37.2563 12.2288 37.05 12.2813 36.8719C12.3338 36.6938 12.5888 36.6113 12.8456 36.6919C13.0988 36.7669 13.2656 36.9731 13.2131 37.1513Z" fill="#676F9D"/>
<path d="M15.0544 37.2862C15.06 37.4718 14.8444 37.6256 14.5763 37.6293C14.3081 37.635 14.0888 37.485 14.0869 37.3031C14.0869 37.1156 14.2988 36.9637 14.5669 36.9581C14.835 36.9525 15.0544 37.1025 15.0544 37.2862Z" fill="#676F9D"/>
<path d="M16.7681 36.9956C16.8 37.1756 16.6144 37.3631 16.3481 37.4119C16.0875 37.4606 15.8456 37.3481 15.8119 37.1681C15.78 36.9825 15.9694 36.7969 16.23 36.7481C16.4944 36.7012 16.7344 36.81 16.7681 36.9956Z" fill="#676F9D"/>
</g>
<defs>
<clipPath id="clip0_2_20">
<rect width="45" height="45" fill="white"/>
</clipPath>
</defs>
</svg>
