<svg width="48" height="42" viewBox="0 0 48 42" fill="none" xmlns="http://www.w3.org/2000/svg">
<path d="M46.004 40.168H46.458L45.588 38.852C46.12 38.852 46.402 38.514 46.406 38.1C46.406 38.084 46.406 38.066 46.404 38.05C46.404 37.486 46.064 37.216 45.366 37.216H44.238V40.168H44.662V38.882H45.184L46.004 40.168ZM45.154 38.548H44.662V37.55H45.286C45.608 37.55 45.976 37.602 45.976 38.024C45.976 38.508 45.606 38.548 45.154 38.548Z" fill="#676F9D"/>
<path d="M34.582 35.146H28.568V25.728C28.568 23.482 28.528 20.592 25.44 20.592C22.308 20.592 21.828 23.038 21.828 25.566V35.146H15.816V15.778H21.59V18.424H21.67C22.848 16.412 25.036 15.21 27.366 15.296C33.462 15.296 34.584 19.306 34.584 24.52L34.582 35.146ZM9.03 13.13C7.102 13.13 5.54 11.568 5.54 9.63999C5.54 7.71199 7.102 6.14999 9.03 6.14999C10.958 6.14999 12.52 7.71199 12.52 9.63999C12.52 11.568 10.958 13.13 9.03 13.13ZM12.036 35.146H6.016V15.778H12.036V35.146ZM37.58 0.565994H2.994C1.36 0.547994 0.02 1.85799 0 3.49199V38.22C0.02 39.856 1.36 41.166 2.994 41.148H37.58C39.218 41.168 40.564 39.858 40.586 38.22V3.48999C40.562 1.85199 39.216 0.541994 37.58 0.563994" fill="#676F9D"/>
<path d="M45.206 35.902C43.678 35.916 42.45 37.168 42.466 38.696C42.48 40.224 43.732 41.452 45.26 41.436C46.788 41.422 48.016 40.17 48 38.642C47.986 37.134 46.766 35.916 45.26 35.902H45.206ZM45.27 41.118C43.93 41.14 42.762 40.074 42.74 38.734C42.718 37.394 43.786 36.29 45.126 36.268C46.466 36.246 47.57 37.314 47.592 38.654C47.592 38.668 47.592 38.68 47.592 38.694C47.62 40.004 46.58 41.09 45.27 41.118H45.208H45.27Z" fill="#676F9D"/>
</svg>
